<?xml version="1.0" encoding="utf-8"?>
<!-- Generator: Adobe Illustrator 20.1.0, SVG Export Plug-In . SVG Version: 6.00 Build 0)  -->
<svg version="1.1" id="Layer_1" xmlns="http://www.w3.org/2000/svg" xmlns:xlink="http://www.w3.org/1999/xlink" x="0px" y="0px"
	 viewBox="0 0 163.8 45.8" style="enable-background:new 0 0 163.8 45.8;" xml:space="preserve">
<style type="text/css">
	.st0{fill:#FFFFFF;}
</style>
<path class="st0" d="M150.9,3.2c-1-1.2-2.5-2.2-3.9-1.7c-2.1,0.7-4.1,2-5.1,4.2c-2.1,4.5-3.3,9.2-3.5,14.1
	c-0.2,3.9,0.8,7.7,2.3,11.4c0.4,0.9,1.4,2.4-0.4,3c-1.7,0.6-3.6,0.7-5.4,0.9c-3.5,0.4-6.9,0.8-10.5,0.9c-3.4,0-6.7-0.2-9.7-1.7
	c-4.2-2.1-8.5-3-13.1-2c-2,0.4-3.7,1.3-5.6,2c-0.8,0.2-1.6,0.4-1.8-0.4c-0.7-3.9-1.7-7.8,1.3-11.4c2.1-2.5,3.8-5.2,4.9-8.3
	c0.2-0.6,0.4-1-0.1-1.4c-0.5-0.4-0.8-0.1-1.3,0.2c-3,2.3-5,5.4-5.8,9.1c-0.5,2-0.8,3.9-2.3,5.5c-2.4,2.7-4.7,5.5-7.2,8.6
	c0-0.7-0.1-1.2,0-1.6c1.7-5.8,3.7-11.5,6.2-16.9c0.4-0.8,1.1-1.8-0.2-2.7c-1.1,2.1-2.1,4.1-3.2,6.2c-1.6,3-3.7,5.6-6.4,7.7
	c-2.8,2.1-6.2,2-9.6,1.9c-0.5,0-0.8-0.2-1-0.6c-0.8-1.2-2.1-1.6-3.4-2c-3.1-0.9-6.3-1.1-9.7-1.1c0.5-0.6,0.9-0.6,1.4-0.7
	c2.1-0.5,4.3-0.7,6.2-1.8c0.5-0.3,1.1-0.6,1.1-1.3c-0.1-0.7-0.7-1-1.4-1.1c-1.3-0.2-2.7-0.5-4-0.6c-1.4-0.1-3.1,0.5-4.2-1.9
	c-0.1,2.3-1.5,1.7-2.4,1.8c-1.4,0.2-2.9,0.1-4.3,0.5c-1.3,0.4-2.1,1-1,2.4c1.3-1.5,3.7-2,6.5-1.3c-2.5,1.4-5,2-7.6,2.2
	c-0.7,0-0.8-0.5-0.9-1.1c-0.1-1.1-0.8-1.9-1.4-2.8c-0.6-0.8-1.2-0.8-1.6,0c-0.6,1-1.6,1.6-2.2,2.5c-1,1.6-2.3,1.3-3.7,0.8
	c-0.3-0.1-0.7-0.4-1-0.4c-0.3,0-0.7-0.5-0.9,0c-0.2,0.3,0.1,0.7,0.3,0.9c0.6,0.8,1.6,0.8,2.5,1.2c-5.4,0.4-10.8,1-16.1,1.5
	c0.7-0.7,1.6-0.7,2.5-0.8c3-0.3,6-1,8.7-2.5c0.5-0.3,1.1-0.5,0.9-1.3c-0.2-0.6-0.6-1-1.2-1.2c-3.9-1.7-8-2.2-12.2-2.3
	c-1.6,0-1.4-0.8-1-1.4c0.7-1.3,0.7-2.9,1.5-4.1c0.5-0.9-0.1-1-0.7-1.2c-0.7-0.3-0.7,0.2-0.9,0.7c-0.5,1.7-1.1,3.3-1.4,5.1
	c-0.2,1-0.7,1.1-1.3,1.1c-3.9-0.1-7.7,0.7-11.4,1.9c-0.5,0.2-0.7,0.4-0.6,0.8c0.1,0.4,0.4,0.8,0.9,0.5c0.4-0.2,0.9-0.3,1.3-0.5
	c3.1-1.2,6.4-1.2,9.7-1.5c0.8-0.1,1,0.2,0.8,1c-0.6,2.2-1,4.4-1.5,6.6c-1.1-1.1-2.3-0.4-3.5-0.2c-3.3,0.5-6.6,1.1-9.9,1.7
	c-0.6,0.1-1.4-0.2-1.5,0.7c-0.1,0.9,0.8,0.9,1.3,1.2c0.4,0.2,0.8,0.1,1.2,0.1c3.8,0,7.2-1.6,11-2c1-0.1,1.3-0.3,1,0.9
	c-0.9,3.7-1.6,7.5-2.4,11.2c-0.1,0.7-0.6,1.4,0.2,1.6c0.9,0.3,1.1-0.8,1.2-1.4c0.7-3.4,1.6-6.7,1.9-10.2c0.1-1.7,0.8-3.1,2.8-3
	c3.8,0.1,7.5-0.6,11.3-1c3.1-0.3,6.5,0.7,9.2-1.8c0.1-0.1,0.5-0.2,0.7-0.1c1.2,0.5,2.5,0.3,3.7,0.3c0.5,0,1,0.1,1.1,0.7
	c0.2,0.5-0.2,0.9-0.6,1.1c-3.1,2-3,6.3,0.1,8.4c2,1.3,4.3,1.5,6.6,1.9c5.1,1,10,0.4,14.8-1.5c1.5-0.6,3.7-0.9,4-3.1
	c0.3-2.1,1.5-2.4,3.2-2.1c0.3,0,0.6,0,0.9,0c3.2-0.2,5.8-1.4,7.9-4.1c1.2-1.6,2.4-3.2,3.8-5.2c-0.3,1.6-0.7,2.6-1.1,3.6
	c-1.3,3.1-2.7,6.1-2.5,9.6c0,0.7-0.1,1.7,0.5,1.9c0.7,0.3,1.2-0.6,1.5-1.2c0.3-0.6,0.7-1.1,1.2-1.5c2.5-2.3,4.1-5.2,6.2-7.9
	c0.6,0.4,0.3,1.1,0.3,1.7c-0.1,2.1,0.5,4,1.2,6c0.5,1.4,1.3,1.2,2.2,0.9c1.2-0.3,2.4-0.8,3.6-1.4c4.8-2.2,9.6-1.5,13.9,0.6
	c2.8,1.4,5.6,2.1,8.7,2.3c2.3,0.1,4.6-0.2,6.9-0.3c4.1-0.2,8.1-1.3,12.2-1.7c2.6-0.3,4.7-1.6,7.1-2.4c2.2-0.7,4.2-2,5.6-3.8
	c2.3-3,3.5-6.6,3.3-10.3C156.8,13,154.7,7.7,150.9,3.2z M98.6,14.8c-0.7,2.9-2.7,5.2-4.2,7.7C94.5,19.2,96.3,16.9,98.6,14.8z
	 M18.5,27.2c-0.6,0.2-0.9-0.1-0.8-0.8c0.3-1.8,0.7-3.5,1.1-5.3c0.1-0.4,0.4-0.4,0.7-0.4c4.3,0.4,8.7,0.4,13,2.3
	c-1.6,1.4-3.5,1.6-5.3,2.2C24.4,26.2,21.4,26.2,18.5,27.2z M43.5,25.2C42.8,25.1,42,25,41,25c0.4-0.6,0.7-1,1-1.3
	c0.5-0.4,0.8-1.4,1.5-1.2c0.8,0.2,0.6,1.2,0.9,1.8C45.1,25.6,44.2,25.2,43.5,25.2z M67.6,29.9c-2.2-0.5-4.4-0.9-6.9-1.5
	C62.8,28,64.6,28.4,67.6,29.9z M55.8,24.8c0-0.1,0.1-0.2,0.1-0.3c0-2.5,1.9-2,3.3-1.9c1.2,0.1,2.4,0.4,3.6,0.5
	c-2.1,1.4-4.6,1.3-6.7,2.5c-0.1,0.1-0.5-0.1-0.6-0.3C55.1,25,55.8,25.1,55.8,24.8z M54.3,24c0.3,1.3,0.4,2.4-1.4,2.1
	c-0.2,0-0.5,0-0.6,0.2c-1.7,2.1-3.9,0.5-5.9,0.8C48.9,25.8,52,26,54.3,24z M69.5,32.4c-0.2,1.2-0.8,2.2-1.9,2.7
	c-3.9,1.8-8,2.8-12.4,2.6c-2.8-0.1-5.5-0.4-8.2-1.1c-2.6-0.7-4.1-2.8-3.5-5.4c0.2-1.1,1-1.7,2-2c1.1-0.3,1,0.8,1.3,1.3
	c0.3,0.5,0.6,0.9,1.3,0.6c0.7-0.3,0.4-0.8,0.2-1.1c-0.6-1,0-1.3,0.8-1.3c0.6,0,1.2,0,1.8,0c0.4,0,0.8,0,1.3,0c0.5,0,1.5,0.2,1.3,0.4
	c-0.4,0.6,0.6,1.9-0.9,1.9c-0.4,0-0.3,0.3-0.3,0.5c0.2,0.7,0.7,1.1,1.3,1.4c0.2,0.2,0.4-0.1,0.5-0.3c0.3-0.7,0.8-1.4,0.7-2.3
	c-0.1-1,0.3-1.3,1.4-1.1c2.8,0.6,5.6,0.6,8.4,1.2c1.4,0.3,2.6,1.1,4.1,0.8C69.4,31.1,69.6,31.9,69.5,32.4z M151.2,29.9
	c-2.2,1.7-4.8,2.6-7.5,3.5c-1,0.4-1.3-0.2-1.6-1c-1.4-3.8-2.5-7.8-2.6-11.9c-0.1-5.3,1.1-10.6,3.9-15.1c1.9-3.1,5.1-3.8,7.8,0
	c2.9,4.1,4.7,9.6,4.6,13.5C155.8,23.2,154.8,27.1,151.2,29.9z"/>
</svg>
